<svg width="81" height="72" viewBox="0 0 81 72" fill="none" xmlns="http://www.w3.org/2000/svg">
<g id="Frame">
<g id="weather">
<g id="grid">
<g id="cell">
<g id="shape/weather/sunrise">
<path id="vector/weather/sunrise" d="M80.451 54.6034H67.344C67.2217 50.5086 66.1879 46.4925 64.318 42.8474L75.561 36.3564L74.561 34.6244L63.348 41.0974C61.2008 37.5672 58.2979 34.5567 54.848 32.2824L61.208 21.2664L59.475 20.2664L53.139 31.2424C49.4848 29.1924 45.4111 28.0029 41.228 27.7644V15.3774H39.228V27.7244C34.9828 27.7784 30.8076 28.8127 27.028 30.7464L20.981 20.2664L19.249 21.2664L25.281 31.7164C21.6192 33.9397 18.5173 36.9748 16.215 40.5874L5.89001 34.6264L4.89001 36.3584L15.19 42.3074C13.1455 46.0938 12.0154 50.3061 11.89 54.6074H0V56.6074H36.493L36.467 56.6224H43.981L43.955 56.6074H80.451V54.6034ZM39.616 29.7164C46.2696 29.724 52.6626 32.3039 57.4578 36.9165C62.2531 41.5291 65.0791 47.8172 65.345 54.4654H13.887C14.1529 47.8172 16.9789 41.5291 21.7742 36.9165C26.5694 32.3039 32.9624 29.724 39.616 29.7164Z" fill="#0016C1"/>
</g>
</g>
</g>
</g>
</g>
</svg>
