<svg width="72" height="72" viewBox="0 0 72 72" fill="none" xmlns="http://www.w3.org/2000/svg">
<g id="Frame">
<g id="geometric">
<g id="grid">
<g id="cell">
<g id="shape/geometric/spark-03">
<path id="vector/geometric/spark-03" d="M53.922 26.9024C53.5943 26.2553 53.2316 25.6265 52.8356 25.0187L59.7067 21.0513L60.7931 22.934L53.922 26.9024ZM59.7111 50.9389L60.7975 49.0573L53.922 45.0878C53.5943 45.7353 53.2316 46.3645 52.8356 46.9726L59.7111 50.9389ZM34.9142 56.0523V64H37.0869V56.0577C36.7251 56.0773 36.3677 56.112 36.0005 56.112C35.6334 56.112 35.2759 56.0773 34.9142 56.0577V56.0523ZM49.0628 60.7964L50.9454 59.71L46.9781 52.8389C46.3698 53.2347 45.7406 53.5973 45.0932 53.9252L49.0628 60.7964ZM11.2058 49.0638L12.2921 50.9454L19.1622 46.9791C18.7667 46.3707 18.404 45.7416 18.0758 45.0943L11.2058 49.0638ZM21.0568 59.71L22.9394 60.7964L26.9089 53.922C26.2616 53.594 25.6324 53.2314 25.0241 52.8356L21.0568 59.71ZM22.9394 11.2025L21.0568 12.2889L25.0241 19.1611C25.6323 18.7652 26.2615 18.4025 26.9089 18.0748L22.9394 11.2025ZM56.0577 37.0869H64.0065V34.9142H56.0577C56.0773 35.2749 56.1131 35.6323 56.1131 36.0005C56.1131 36.3688 56.0773 36.7262 56.0577 37.0869ZM50.9454 12.29L49.0628 11.2036L45.0932 18.0802C45.7405 18.4077 46.3693 18.7704 46.977 19.1665L50.9454 12.29ZM12.2921 21.0568L11.2058 22.9394L18.0791 26.9078C18.4073 26.261 18.7699 25.6322 19.1655 25.0241L12.2921 21.0568ZM37.0869 15.951V8H34.9142V15.9455C35.2759 15.926 35.6344 15.8901 36.0005 15.8901C36.3666 15.8901 36.7251 15.926 37.0869 15.9455V15.951ZM15.9477 34.9153H8V37.088H15.9477C15.9282 36.7251 15.8934 36.3677 15.8934 36.0016C15.8934 35.6355 15.9282 35.2781 15.9477 34.9153ZM22.5885 21.0492L17.0036 15.4643L15.4675 17.0004L21.0525 22.5853C21.5367 22.0462 22.0495 21.5334 22.5885 21.0492ZM8.7159 42.1873L9.27863 44.2861L16.8906 42.2459C16.6629 41.5578 16.4736 40.8574 16.3236 40.1482L8.7159 42.1873ZM9.27863 27.7161L8.7159 29.8138L16.3203 31.8518C16.4714 31.1431 16.6611 30.4432 16.8885 29.7551L9.27863 27.7161ZM29.8105 8.7159L27.7117 9.27754L29.7519 16.8917C30.4399 16.6642 31.1398 16.4746 31.8485 16.3236L29.8105 8.7159ZM27.7117 62.7246L29.8105 63.2863L31.8485 55.6819C31.1398 55.5312 30.4399 55.3419 29.7519 55.1148L27.7117 62.7246ZM62.7236 44.2839L63.2863 42.1851L55.6819 40.146C55.5305 40.855 55.3408 41.5553 55.1137 42.2438L62.7236 44.2839ZM42.1916 63.283L44.2905 62.7214L42.2503 55.1083C41.5625 55.3363 40.8625 55.5259 40.1536 55.6764L42.1916 63.283ZM21.0535 49.4169L15.4686 55.0018L17.0047 56.5379L22.5896 50.953C22.0503 50.469 21.5375 49.9563 21.0535 49.4169ZM44.2905 9.27754L42.1916 8.7159L40.1536 16.3203C40.8623 16.4716 41.5622 16.6613 42.2503 16.8885L44.2905 9.27754ZM49.4212 50.953L55.0062 56.5379L56.5423 55.0018L50.9573 49.4169C50.4734 49.9563 49.9606 50.469 49.4212 50.953ZM63.2863 29.8138L62.7236 27.7161L55.1115 29.7562C55.3392 30.4442 55.5288 31.1441 55.6797 31.8529L63.2863 29.8138ZM50.953 22.5853L56.5379 17.0004L55.0018 15.4643L49.4169 21.0492C49.9563 21.5331 50.4691 22.0459 50.953 22.5853Z" fill="#0016C1"/>
</g>
</g>
</g>
</g>
</g>
</svg>
