<svg xmlns="http://www.w3.org/2000/svg" viewBox="0 0 16 16" width="16" height="16" fill="#000000"><path fill-rule="evenodd" d="M6.571 1.5C9.372 1.5 11.643 3.771 11.643 6.571C11.643 7.83 11.183 8.98 10.424 9.866L13.85 13.293L13.143 14L9.702 10.559C8.84 11.237 7.753 11.643 6.571 11.643C3.771 11.643 1.5 9.372 1.5 6.571C1.5 3.771 3.771 1.5 6.571 1.5ZM6.571 2.5C4.323 2.5 2.5 4.323 2.5 6.571C2.5 8.82 4.323 10.643 6.571 10.643C8.82 10.642 10.642 8.82 10.643 6.571C10.643 4.323 8.82 2.5 6.571 2.5Z"/></svg>