<svg width="72" height="72" viewBox="0 0 72 72" fill="none" xmlns="http://www.w3.org/2000/svg">
<g id="Frame">
<g id="amenity">
<g id="grid">
<g id="cell">
<g id="shape/amenity/shield">
<path id="vector/symbol/shield" d="M36.991 65.1495L34.997 65.1425C34.981 64.9665 34.517 60.6425 28.519 58.4705C27.758 58.1945 26.993 57.9375 26.229 57.6815C21.672 56.1515 16.959 54.5695 14.069 49.1995C11.131 43.7475 12.469 38.7595 14.488 31.2115C14.788 30.1065 15.096 28.9405 15.414 27.7035C15.965 25.5408 16.008 23.2798 15.5396 21.0977C15.0712 18.9156 14.1041 16.8715 12.714 15.1255L12.127 14.4705L16.552 9.32248L17.29 9.81747C17.311 9.83147 20.013 11.5575 25.547 11.5575C31.081 11.5575 35.26 7.56347 35.302 7.52347L35.996 6.85046L36.696 7.52246C36.738 7.56246 40.95 11.5575 46.452 11.5575C51.986 11.5575 54.688 9.83148 54.715 9.81448L55.45 9.33447L59.873 14.4705L59.285 15.1255C57.883 16.865 56.9084 18.909 56.4395 21.0934C55.9705 23.2779 56.0204 25.5418 56.585 27.7035C56.903 28.9415 57.216 30.1035 57.511 31.2115C59.531 38.7605 60.866 43.7475 57.929 49.2005C55.039 54.5695 50.329 56.1515 45.769 57.6815C45.006 57.9375 44.24 58.1945 43.48 58.4705C37.48 60.6435 37.017 64.9705 37.001 65.1495H36.991ZM14.75 14.4825C16.1677 16.4362 17.136 18.6792 17.5855 21.051C18.035 23.4227 17.9546 25.8645 17.35 28.2015C17.03 29.4455 16.716 30.6175 16.419 31.7285C14.454 39.0675 13.268 43.4975 15.829 48.2515C18.345 52.9245 22.483 54.3145 26.865 55.7855C27.643 56.0465 28.424 56.3084 29.199 56.5854C32.0605 57.4797 34.484 59.412 35.993 62.0025C37.5022 59.4118 39.9261 57.4794 42.788 56.5854C43.562 56.3045 44.344 56.0425 45.122 55.7855C49.503 54.3145 53.642 52.9245 56.158 48.2525C58.719 43.4985 57.533 39.0685 55.568 31.7295C55.268 30.6185 54.957 29.4455 54.637 28.2015C54.0322 25.8645 53.9517 23.4227 54.4012 21.0509C54.8507 18.6791 55.8191 16.4361 57.237 14.4825L55.026 11.9095C52.3217 13.0843 49.3912 13.6471 46.444 13.5575C42.6139 13.4249 38.937 12.0211 35.993 9.56747C33.0491 12.0212 29.3721 13.425 25.542 13.5575C22.5952 13.6471 19.665 13.0843 16.961 11.9095L14.75 14.4825Z" fill="#0016C1"/>
</g>
</g>
</g>
</g>
</g>
</svg>
